<svg xmlns="http://www.w3.org/2000/svg" width="512" height="512" viewBox="0 0 512 512"><defs><linearGradient id="ring" x1="0" y1="0" x2="1" y2="1"><stop offset="0%" stop-color="#00d2ff"/><stop offset="100%" stop-color="#ff6a00"/></linearGradient><linearGradient id="rocketBody" x1="0" y1="0" x2="0" y2="1"><stop offset="0%" stop-color="#ffffff"/><stop offset="100%" stop-color="#cfd8dc"/></linearGradient><linearGradient id="fire" x1="0" y1="0" x2="0" y2="1"><stop offset="0%" stop-color="#fff176"/><stop offset="100%" stop-color="#ff6a00"/></linearGradient></defs><rect width="512" height="512" rx="90" fill="#050816"/><circle cx="256" cy="256" r="145" fill="none" stroke="url(#ring)" stroke-width="14"/><circle cx="170" cy="140" r="4" fill="#ffffff"/><circle cx="350" cy="150" r="5" fill="#ffffff"/><circle cx="120" cy="280" r="3" fill="#00d2ff"/><circle cx="380" cy="310" r="4" fill="#ff6a00"/><g transform="translate(40 -10) rotate(35 216 216)"><path d="M216 120C255 170 255 290 216 350C177 290 177 170 216 120Z" fill="url(#rocketBody)"/><circle cx="216" cy="225" r="22" fill="#0f172a" stroke="#ff6a00" stroke-width="7"/><path d="M182 265L145 315L188 300Z" fill="#ff5a00"/><path d="M250 265L287 315L244 300Z" fill="#ff5a00"/><path d="M202 350L216 425L230 350Z" fill="url(#fire)"/></g><text x="256" y="438" text-anchor="middle" fill="#ffffff" font-size="56" font-family="Arial" font-weight="bold">RUSH</text><text x="256" y="478" text-anchor="middle" fill="#ff8c1a" font-size="28" font-family="Arial" letter-spacing="6">STUDIO</text></svg>